<mxfile host="app.diagrams.net" modified="2022-05-04T14:45:33.884Z" agent="5.0 (Windows)" etag="9s102-3xXWhCq4kxOezn" version="17.5.0" type="github">
  <diagram id="0zl7Rx_2QkJYzwxxg3Eo" name="Page-1">
    <mxGraphModel dx="1422" dy="819" grid="1" gridSize="10" guides="1" tooltips="1" connect="1" arrows="1" fold="1" page="1" pageScale="1" pageWidth="827" pageHeight="1169" math="0" shadow="0">
      <root>
        <mxCell id="0" />
        <mxCell id="1" parent="0" />
        <mxCell id="7_dOw0Q5zScmILqZtCyU-1" value="&lt;b&gt;&lt;font style=&quot;font-size: 24px&quot;&gt;GF ETL PROCESS&lt;/font&gt;&lt;/b&gt;" style="rounded=1;whiteSpace=wrap;html=1;strokeWidth=3;" parent="1" vertex="1">
          <mxGeometry x="520" y="70" width="330" height="40" as="geometry" />
        </mxCell>
        <mxCell id="7_dOw0Q5zScmILqZtCyU-3" value="gf-data-extract" style="swimlane;fontSize=12;strokeWidth=1;" parent="1" vertex="1">
          <mxGeometry x="120" y="440" width="820" height="310" as="geometry" />
        </mxCell>
        <mxCell id="7_dOw0Q5zScmILqZtCyU-4" value="" style="rounded=0;whiteSpace=wrap;html=1;fontSize=12;strokeWidth=1;fillColor=#3333FF;imageWidth=24;" parent="7_dOw0Q5zScmILqZtCyU-3" vertex="1">
          <mxGeometry x="170" y="60" width="80" height="40" as="geometry" />
        </mxCell>
        <mxCell id="7_dOw0Q5zScmILqZtCyU-5" value="&lt;div style=&quot;font-size: 11px&quot;&gt;&lt;font style=&quot;font-size: 11px&quot;&gt;BPE 2020 &lt;br&gt;&lt;/font&gt;&lt;/div&gt;&lt;div style=&quot;font-size: 11px&quot;&gt;&lt;font style=&quot;font-size: 11px&quot; size=&quot;3&quot;&gt;archive 1&lt;/font&gt; (fr)&lt;/div&gt;" style="ellipse;whiteSpace=wrap;html=1;fontSize=12;strokeWidth=1;fillColor=#CCFF99;" parent="7_dOw0Q5zScmILqZtCyU-3" vertex="1">
          <mxGeometry x="30" y="60" width="100" height="40" as="geometry" />
        </mxCell>
        <mxCell id="7_dOw0Q5zScmILqZtCyU-6" value="" style="endArrow=classic;html=1;rounded=0;fontSize=12;exitX=1;exitY=0.5;exitDx=0;exitDy=0;strokeColor=#3333FF;entryX=0;entryY=0.5;entryDx=0;entryDy=0;" parent="7_dOw0Q5zScmILqZtCyU-3" source="7_dOw0Q5zScmILqZtCyU-5" target="7_dOw0Q5zScmILqZtCyU-4" edge="1">
          <mxGeometry width="50" height="50" relative="1" as="geometry">
            <mxPoint x="200" y="205" as="sourcePoint" />
            <mxPoint x="180" y="80.5" as="targetPoint" />
          </mxGeometry>
        </mxCell>
        <mxCell id="7_dOw0Q5zScmILqZtCyU-9" value="" style="rounded=0;whiteSpace=wrap;html=1;fontSize=12;strokeWidth=1;fillColor=#3333FF;imageWidth=24;" parent="7_dOw0Q5zScmILqZtCyU-3" vertex="1">
          <mxGeometry x="170" y="115" width="80" height="40" as="geometry" />
        </mxCell>
        <mxCell id="7_dOw0Q5zScmILqZtCyU-10" value="&lt;div style=&quot;font-size: 11px&quot;&gt;&lt;font style=&quot;font-size: 11px&quot;&gt;BPE 2020 &lt;br&gt;&lt;/font&gt;&lt;/div&gt;&lt;div style=&quot;font-size: 11px&quot;&gt;&lt;font style=&quot;font-size: 11px&quot; size=&quot;3&quot;&gt;1&lt;br&gt;&lt;/font&gt;&lt;/div&gt;" style="ellipse;whiteSpace=wrap;html=1;fontSize=12;strokeWidth=1;fillColor=#CCFF99;" parent="7_dOw0Q5zScmILqZtCyU-3" vertex="1">
          <mxGeometry x="300" y="60" width="100" height="40" as="geometry" />
        </mxCell>
        <mxCell id="7_dOw0Q5zScmILqZtCyU-11" value="&lt;font style=&quot;font-size: 11px&quot;&gt;French facilities&lt;font style=&quot;font-size: 11px&quot;&gt; 2020&lt;/font&gt;&lt;br&gt;&lt;/font&gt;" style="ellipse;whiteSpace=wrap;html=1;fontSize=12;strokeWidth=1;fillColor=#CCFF99;" parent="7_dOw0Q5zScmILqZtCyU-3" vertex="1">
          <mxGeometry x="607" y="85" width="100" height="40" as="geometry" />
        </mxCell>
        <mxCell id="7_dOw0Q5zScmILqZtCyU-12" value="&lt;div style=&quot;font-size: 11px&quot;&gt;&lt;font style=&quot;font-size: 10px&quot;&gt;BPE 2020&lt;/font&gt;&lt;/div&gt;&lt;div style=&quot;font-size: 11px&quot;&gt;&lt;font style=&quot;font-size: 11px&quot; size=&quot;3&quot;&gt;archive 2 (fr)&lt;/font&gt;&lt;/div&gt;" style="ellipse;whiteSpace=wrap;html=1;fontSize=12;strokeWidth=1;fillColor=#CCFF99;" parent="7_dOw0Q5zScmILqZtCyU-3" vertex="1">
          <mxGeometry x="30" y="115" width="100" height="40" as="geometry" />
        </mxCell>
        <mxCell id="7_dOw0Q5zScmILqZtCyU-17" value="&lt;div style=&quot;font-size: 11px&quot;&gt;&lt;font style=&quot;font-size: 11px&quot;&gt;BPE 2020 &lt;br&gt;&lt;/font&gt;&lt;/div&gt;&lt;div style=&quot;font-size: 11px&quot;&gt;&lt;font style=&quot;font-size: 11px&quot; size=&quot;3&quot;&gt;2&lt;br&gt;&lt;/font&gt;&lt;/div&gt;" style="ellipse;whiteSpace=wrap;html=1;fontSize=12;strokeWidth=1;fillColor=#CCFF99;" parent="7_dOw0Q5zScmILqZtCyU-3" vertex="1">
          <mxGeometry x="300" y="115" width="100" height="40" as="geometry" />
        </mxCell>
        <mxCell id="7_dOw0Q5zScmILqZtCyU-18" value="" style="rounded=0;whiteSpace=wrap;html=1;fontSize=12;strokeWidth=1;fillColor=#3333FF;imageWidth=24;" parent="7_dOw0Q5zScmILqZtCyU-3" vertex="1">
          <mxGeometry x="490" y="85" width="80" height="40" as="geometry" />
        </mxCell>
        <mxCell id="7_dOw0Q5zScmILqZtCyU-19" value="" style="endArrow=classic;html=1;rounded=0;fontSize=12;exitX=1;exitY=0.5;exitDx=0;exitDy=0;strokeColor=#3333FF;" parent="7_dOw0Q5zScmILqZtCyU-3" source="7_dOw0Q5zScmILqZtCyU-17" edge="1">
          <mxGeometry width="50" height="50" relative="1" as="geometry">
            <mxPoint x="450" y="134.66" as="sourcePoint" />
            <mxPoint x="490" y="105.5" as="targetPoint" />
            <Array as="points">
              <mxPoint x="440" y="135" />
              <mxPoint x="440" y="123" />
              <mxPoint x="440" y="106" />
            </Array>
          </mxGeometry>
        </mxCell>
        <mxCell id="7_dOw0Q5zScmILqZtCyU-20" value="" style="endArrow=classic;html=1;rounded=0;fontSize=12;exitX=1;exitY=0.5;exitDx=0;exitDy=0;strokeColor=#3333FF;" parent="7_dOw0Q5zScmILqZtCyU-3" source="7_dOw0Q5zScmILqZtCyU-10" edge="1">
          <mxGeometry width="50" height="50" relative="1" as="geometry">
            <mxPoint x="490" y="84.65999999999997" as="sourcePoint" />
            <mxPoint x="490" y="105.5" as="targetPoint" />
            <Array as="points">
              <mxPoint x="440" y="80" />
              <mxPoint x="440" y="106" />
              <mxPoint x="480" y="105.5" />
            </Array>
          </mxGeometry>
        </mxCell>
        <mxCell id="Gm324kiZm9DeqdXcQll7-8" value="" style="endArrow=classic;html=1;rounded=0;fontSize=12;exitX=1;exitY=0.5;exitDx=0;exitDy=0;strokeColor=#3333FF;entryX=0;entryY=0.5;entryDx=0;entryDy=0;" parent="7_dOw0Q5zScmILqZtCyU-3" target="7_dOw0Q5zScmILqZtCyU-9" edge="1">
          <mxGeometry width="50" height="50" relative="1" as="geometry">
            <mxPoint x="130" y="134.5" as="sourcePoint" />
            <mxPoint x="180" y="135" as="targetPoint" />
          </mxGeometry>
        </mxCell>
        <mxCell id="Gm324kiZm9DeqdXcQll7-9" value="" style="endArrow=classic;html=1;rounded=0;fontSize=12;exitX=1;exitY=0.5;exitDx=0;exitDy=0;strokeColor=#3333FF;" parent="7_dOw0Q5zScmILqZtCyU-3" edge="1">
          <mxGeometry width="50" height="50" relative="1" as="geometry">
            <mxPoint x="250" y="79.5" as="sourcePoint" />
            <mxPoint x="300" y="80" as="targetPoint" />
          </mxGeometry>
        </mxCell>
        <mxCell id="Gm324kiZm9DeqdXcQll7-10" value="" style="endArrow=classic;html=1;rounded=0;fontSize=12;exitX=1;exitY=0.5;exitDx=0;exitDy=0;strokeColor=#3333FF;" parent="7_dOw0Q5zScmILqZtCyU-3" edge="1">
          <mxGeometry width="50" height="50" relative="1" as="geometry">
            <mxPoint x="250" y="135" as="sourcePoint" />
            <mxPoint x="300" y="135.5" as="targetPoint" />
          </mxGeometry>
        </mxCell>
        <mxCell id="Gm324kiZm9DeqdXcQll7-11" value="" style="endArrow=classic;html=1;rounded=0;fontSize=12;exitX=1;exitY=0.5;exitDx=0;exitDy=0;strokeColor=#3333FF;" parent="7_dOw0Q5zScmILqZtCyU-3" edge="1">
          <mxGeometry width="50" height="50" relative="1" as="geometry">
            <mxPoint x="570" y="104.5" as="sourcePoint" />
            <mxPoint x="610" y="105" as="targetPoint" />
          </mxGeometry>
        </mxCell>
        <mxCell id="LNaAPMAuOgr6FWUlJ1w--6" value="" style="rounded=0;whiteSpace=wrap;html=1;fontSize=12;strokeWidth=1;fillColor=#3333FF;imageWidth=24;" parent="7_dOw0Q5zScmILqZtCyU-3" vertex="1">
          <mxGeometry x="170" y="180" width="80" height="40" as="geometry" />
        </mxCell>
        <mxCell id="LNaAPMAuOgr6FWUlJ1w--7" value="&lt;div&gt;&lt;font style=&quot;font-size: 11px&quot;&gt;Educational&lt;/font&gt;&lt;/div&gt;&lt;div&gt;&lt;font style=&quot;font-size: 11px&quot;&gt;facilities CSV (it)&lt;/font&gt;&lt;/div&gt;" style="ellipse;whiteSpace=wrap;html=1;fontSize=12;strokeWidth=1;fillColor=#CCFF99;" parent="7_dOw0Q5zScmILqZtCyU-3" vertex="1">
          <mxGeometry x="30" y="180" width="100" height="40" as="geometry" />
        </mxCell>
        <mxCell id="LNaAPMAuOgr6FWUlJ1w--8" value="" style="endArrow=classic;html=1;rounded=0;fontSize=12;exitX=1;exitY=0.5;exitDx=0;exitDy=0;strokeColor=#3333FF;" parent="7_dOw0Q5zScmILqZtCyU-3" source="LNaAPMAuOgr6FWUlJ1w--7" edge="1">
          <mxGeometry width="50" height="50" relative="1" as="geometry">
            <mxPoint x="80" y="-115" as="sourcePoint" />
            <mxPoint x="170" y="200" as="targetPoint" />
          </mxGeometry>
        </mxCell>
        <mxCell id="LNaAPMAuOgr6FWUlJ1w--9" value="" style="rounded=0;whiteSpace=wrap;html=1;fontSize=12;strokeWidth=1;fillColor=#3333FF;imageWidth=24;" parent="7_dOw0Q5zScmILqZtCyU-3" vertex="1">
          <mxGeometry x="170" y="235" width="80" height="40" as="geometry" />
        </mxCell>
        <mxCell id="LNaAPMAuOgr6FWUlJ1w--10" value="&lt;div&gt;&lt;font style=&quot;font-size: 11px&quot;&gt;Educational&lt;/font&gt;&lt;/div&gt;&lt;div&gt;&lt;font style=&quot;font-size: 11px&quot;&gt;facilities&lt;/font&gt;&lt;/div&gt;" style="ellipse;whiteSpace=wrap;html=1;fontSize=12;strokeWidth=1;fillColor=#CCFF99;" parent="7_dOw0Q5zScmILqZtCyU-3" vertex="1">
          <mxGeometry x="300" y="180" width="100" height="40" as="geometry" />
        </mxCell>
        <mxCell id="LNaAPMAuOgr6FWUlJ1w--12" value="&lt;div style=&quot;font-size: 11px&quot;&gt;&lt;font style=&quot;font-size: 11px&quot;&gt;Cultural &lt;br&gt;&lt;/font&gt;&lt;/div&gt;&lt;div style=&quot;font-size: 11px&quot;&gt;&lt;font style=&quot;font-size: 11px&quot;&gt;facilities RDF (it)&lt;br&gt;&lt;/font&gt;&lt;/div&gt;" style="ellipse;whiteSpace=wrap;html=1;fontSize=12;strokeWidth=1;fillColor=#CCFF99;" parent="7_dOw0Q5zScmILqZtCyU-3" vertex="1">
          <mxGeometry x="30" y="235" width="100" height="40" as="geometry" />
        </mxCell>
        <mxCell id="LNaAPMAuOgr6FWUlJ1w--13" value="&lt;div style=&quot;font-size: 11px&quot;&gt;&lt;div style=&quot;font-size: 11px&quot;&gt;&lt;font style=&quot;font-size: 11px&quot;&gt;Cultural &lt;br&gt;&lt;/font&gt;&lt;/div&gt;&lt;div style=&quot;font-size: 11px&quot;&gt;&lt;font style=&quot;font-size: 11px&quot;&gt;facilities&lt;br&gt;&lt;/font&gt;&lt;/div&gt;&lt;/div&gt;" style="ellipse;whiteSpace=wrap;html=1;fontSize=12;strokeWidth=1;fillColor=#CCFF99;" parent="7_dOw0Q5zScmILqZtCyU-3" vertex="1">
          <mxGeometry x="300" y="235" width="100" height="40" as="geometry" />
        </mxCell>
        <mxCell id="LNaAPMAuOgr6FWUlJ1w--17" value="" style="endArrow=classic;html=1;rounded=0;fontSize=12;exitX=1;exitY=0.5;exitDx=0;exitDy=0;strokeColor=#3333FF;entryX=0;entryY=0.5;entryDx=0;entryDy=0;" parent="7_dOw0Q5zScmILqZtCyU-3" target="LNaAPMAuOgr6FWUlJ1w--9" edge="1">
          <mxGeometry width="50" height="50" relative="1" as="geometry">
            <mxPoint x="130" y="254.5" as="sourcePoint" />
            <mxPoint x="180" y="255" as="targetPoint" />
          </mxGeometry>
        </mxCell>
        <mxCell id="LNaAPMAuOgr6FWUlJ1w--18" value="" style="endArrow=classic;html=1;rounded=0;fontSize=12;exitX=1;exitY=0.5;exitDx=0;exitDy=0;strokeColor=#3333FF;" parent="7_dOw0Q5zScmILqZtCyU-3" edge="1">
          <mxGeometry width="50" height="50" relative="1" as="geometry">
            <mxPoint x="250" y="199.5" as="sourcePoint" />
            <mxPoint x="300" y="200" as="targetPoint" />
          </mxGeometry>
        </mxCell>
        <mxCell id="LNaAPMAuOgr6FWUlJ1w--19" value="" style="endArrow=classic;html=1;rounded=0;fontSize=12;exitX=1;exitY=0.5;exitDx=0;exitDy=0;strokeColor=#3333FF;" parent="7_dOw0Q5zScmILqZtCyU-3" edge="1">
          <mxGeometry width="50" height="50" relative="1" as="geometry">
            <mxPoint x="250" y="254.5" as="sourcePoint" />
            <mxPoint x="300" y="255" as="targetPoint" />
          </mxGeometry>
        </mxCell>
        <mxCell id="7_dOw0Q5zScmILqZtCyU-25" value="gf-metadata-extract" style="swimlane;fontSize=12;strokeWidth=1;" parent="1" vertex="1">
          <mxGeometry x="120" y="200" width="820" height="210" as="geometry" />
        </mxCell>
        <mxCell id="7_dOw0Q5zScmILqZtCyU-26" value="" style="rounded=0;whiteSpace=wrap;html=1;fontSize=12;strokeWidth=1;fillColor=#CCCCFF;imageWidth=24;" parent="7_dOw0Q5zScmILqZtCyU-25" vertex="1">
          <mxGeometry x="30" y="70" width="80" height="40" as="geometry" />
        </mxCell>
        <mxCell id="7_dOw0Q5zScmILqZtCyU-29" value="" style="rounded=0;whiteSpace=wrap;html=1;fontSize=12;strokeWidth=1;fillColor=#CCCCFF;imageWidth=24;" parent="7_dOw0Q5zScmILqZtCyU-25" vertex="1">
          <mxGeometry x="30" y="127.5" width="80" height="40" as="geometry" />
        </mxCell>
        <mxCell id="7_dOw0Q5zScmILqZtCyU-30" value="&lt;font style=&quot;font-size: 11px&quot;&gt;Variable documentation CSV 1&lt;/font&gt;" style="ellipse;whiteSpace=wrap;html=1;fontSize=12;strokeWidth=1;fillColor=#CCFF99;" parent="7_dOw0Q5zScmILqZtCyU-25" vertex="1">
          <mxGeometry x="160" y="70" width="100" height="40" as="geometry" />
        </mxCell>
        <mxCell id="7_dOw0Q5zScmILqZtCyU-36" value="&lt;font style=&quot;font-size: 11px&quot;&gt;Variable documentation CSV 2&lt;/font&gt;" style="ellipse;whiteSpace=wrap;html=1;fontSize=12;strokeWidth=1;fillColor=#CCFF99;" parent="7_dOw0Q5zScmILqZtCyU-25" vertex="1">
          <mxGeometry x="160" y="127.5" width="100" height="40" as="geometry" />
        </mxCell>
        <mxCell id="Gm324kiZm9DeqdXcQll7-3" value="&lt;font style=&quot;font-size: 11px&quot;&gt;Variable documentation 1&lt;/font&gt;" style="ellipse;whiteSpace=wrap;html=1;fontSize=12;strokeWidth=1;fillColor=#CCFF99;" parent="7_dOw0Q5zScmILqZtCyU-25" vertex="1">
          <mxGeometry x="440" y="70" width="100" height="40" as="geometry" />
        </mxCell>
        <mxCell id="Gm324kiZm9DeqdXcQll7-4" value="&lt;font style=&quot;font-size: 11px&quot;&gt;Variable documentation 2&lt;/font&gt;" style="ellipse;whiteSpace=wrap;html=1;fontSize=12;strokeWidth=1;fillColor=#CCFF99;" parent="7_dOw0Q5zScmILqZtCyU-25" vertex="1">
          <mxGeometry x="440" y="127.5" width="100" height="40" as="geometry" />
        </mxCell>
        <mxCell id="Gm324kiZm9DeqdXcQll7-2" value="" style="rounded=0;whiteSpace=wrap;html=1;fontSize=12;strokeWidth=1;fillColor=#3333FF;imageWidth=24;" parent="7_dOw0Q5zScmILqZtCyU-25" vertex="1">
          <mxGeometry x="310" y="70" width="80" height="40" as="geometry" />
        </mxCell>
        <mxCell id="Gm324kiZm9DeqdXcQll7-6" value="" style="rounded=0;whiteSpace=wrap;html=1;fontSize=12;strokeWidth=1;fillColor=#3333FF;imageWidth=24;" parent="7_dOw0Q5zScmILqZtCyU-25" vertex="1">
          <mxGeometry x="310" y="127.5" width="80" height="40" as="geometry" />
        </mxCell>
        <mxCell id="Gm324kiZm9DeqdXcQll7-12" value="" style="endArrow=classic;html=1;rounded=0;fontSize=12;exitX=1;exitY=0.5;exitDx=0;exitDy=0;strokeColor=#CCCCFF;" parent="7_dOw0Q5zScmILqZtCyU-25" edge="1">
          <mxGeometry width="50" height="50" relative="1" as="geometry">
            <mxPoint x="110" y="147" as="sourcePoint" />
            <mxPoint x="160" y="147.5" as="targetPoint" />
          </mxGeometry>
        </mxCell>
        <mxCell id="Gm324kiZm9DeqdXcQll7-14" value="" style="endArrow=classic;html=1;rounded=0;fontSize=12;exitX=1;exitY=0.5;exitDx=0;exitDy=0;strokeColor=#CCCCFF;" parent="7_dOw0Q5zScmILqZtCyU-25" edge="1">
          <mxGeometry width="50" height="50" relative="1" as="geometry">
            <mxPoint x="110" y="89.5" as="sourcePoint" />
            <mxPoint x="160" y="90" as="targetPoint" />
          </mxGeometry>
        </mxCell>
        <mxCell id="Gm324kiZm9DeqdXcQll7-15" value="" style="endArrow=classic;html=1;rounded=0;fontSize=12;exitX=1;exitY=0.5;exitDx=0;exitDy=0;strokeColor=#3333FF;" parent="7_dOw0Q5zScmILqZtCyU-25" edge="1">
          <mxGeometry width="50" height="50" relative="1" as="geometry">
            <mxPoint x="260" y="89.5" as="sourcePoint" />
            <mxPoint x="310" y="90" as="targetPoint" />
          </mxGeometry>
        </mxCell>
        <mxCell id="Gm324kiZm9DeqdXcQll7-16" value="" style="endArrow=classic;html=1;rounded=0;fontSize=12;exitX=1;exitY=0.5;exitDx=0;exitDy=0;strokeColor=#3333FF;" parent="7_dOw0Q5zScmILqZtCyU-25" edge="1">
          <mxGeometry width="50" height="50" relative="1" as="geometry">
            <mxPoint x="260" y="147" as="sourcePoint" />
            <mxPoint x="310" y="147.5" as="targetPoint" />
          </mxGeometry>
        </mxCell>
        <mxCell id="Gm324kiZm9DeqdXcQll7-17" value="" style="endArrow=classic;html=1;rounded=0;fontSize=12;exitX=1;exitY=0.5;exitDx=0;exitDy=0;strokeColor=#3333FF;" parent="7_dOw0Q5zScmILqZtCyU-25" edge="1">
          <mxGeometry width="50" height="50" relative="1" as="geometry">
            <mxPoint x="390" y="89.5" as="sourcePoint" />
            <mxPoint x="440" y="90" as="targetPoint" />
          </mxGeometry>
        </mxCell>
        <mxCell id="Gm324kiZm9DeqdXcQll7-18" value="" style="endArrow=classic;html=1;rounded=0;fontSize=12;exitX=1;exitY=0.5;exitDx=0;exitDy=0;strokeColor=#3333FF;" parent="7_dOw0Q5zScmILqZtCyU-25" edge="1">
          <mxGeometry width="50" height="50" relative="1" as="geometry">
            <mxPoint x="390" y="147" as="sourcePoint" />
            <mxPoint x="440" y="147.5" as="targetPoint" />
          </mxGeometry>
        </mxCell>
        <mxCell id="Gm324kiZm9DeqdXcQll7-19" value="" style="endArrow=classic;html=1;rounded=0;fontSize=12;exitX=1;exitY=0.5;exitDx=0;exitDy=0;strokeColor=#3333FF;exitPerimeter=0;entryX=0;entryY=0.5;entryDx=0;entryDy=0;" parent="7_dOw0Q5zScmILqZtCyU-25" source="Gm324kiZm9DeqdXcQll7-3" target="LNaAPMAuOgr6FWUlJ1w--1" edge="1">
          <mxGeometry width="50" height="50" relative="1" as="geometry">
            <mxPoint x="540" y="94.75" as="sourcePoint" />
            <mxPoint x="620" y="120.25" as="targetPoint" />
            <Array as="points">
              <mxPoint x="560" y="90" />
              <mxPoint x="560" y="120" />
              <mxPoint x="610" y="120.25" />
            </Array>
          </mxGeometry>
        </mxCell>
        <mxCell id="Gm324kiZm9DeqdXcQll7-20" value="" style="endArrow=classic;html=1;rounded=0;fontSize=12;exitX=1;exitY=0.5;exitDx=0;exitDy=0;strokeColor=#3333FF;" parent="7_dOw0Q5zScmILqZtCyU-25" target="LNaAPMAuOgr6FWUlJ1w--1" edge="1">
          <mxGeometry width="50" height="50" relative="1" as="geometry">
            <mxPoint x="540" y="149.5" as="sourcePoint" />
            <mxPoint x="620" y="120" as="targetPoint" />
            <Array as="points">
              <mxPoint x="560" y="150" />
              <mxPoint x="560" y="120" />
              <mxPoint x="580" y="120" />
            </Array>
          </mxGeometry>
        </mxCell>
        <mxCell id="LNaAPMAuOgr6FWUlJ1w--3" value="" style="edgeStyle=orthogonalEdgeStyle;rounded=0;orthogonalLoop=1;jettySize=auto;html=1;strokeColor=#3333FF;" parent="7_dOw0Q5zScmILqZtCyU-25" source="LNaAPMAuOgr6FWUlJ1w--1" edge="1">
          <mxGeometry relative="1" as="geometry">
            <mxPoint x="700" y="120" as="targetPoint" />
          </mxGeometry>
        </mxCell>
        <mxCell id="LNaAPMAuOgr6FWUlJ1w--1" value="" style="rounded=0;whiteSpace=wrap;html=1;fontSize=12;strokeWidth=1;fillColor=#3333FF;imageWidth=24;" parent="7_dOw0Q5zScmILqZtCyU-25" vertex="1">
          <mxGeometry x="590" y="100" width="80" height="40" as="geometry" />
        </mxCell>
        <mxCell id="LNaAPMAuOgr6FWUlJ1w--75" value="&lt;div style=&quot;font-size: 11px&quot;&gt;&lt;font style=&quot;font-size: 11px&quot;&gt;Variable documentation&lt;br style=&quot;font-size: 11px;&quot;&gt;&lt;/font&gt;&lt;/div&gt;&lt;font style=&quot;font-size: 11px&quot;&gt;&amp;nbsp;(fr)&lt;/font&gt;" style="ellipse;whiteSpace=wrap;html=1;fontSize=11;strokeWidth=1;fillColor=#CCFF99;" parent="7_dOw0Q5zScmILqZtCyU-25" vertex="1">
          <mxGeometry x="700" y="100" width="100" height="40" as="geometry" />
        </mxCell>
        <mxCell id="7_dOw0Q5zScmILqZtCyU-43" value="gf-metadata-transform" style="swimlane;fontSize=12;strokeWidth=1;" parent="1" vertex="1">
          <mxGeometry x="980" y="200" width="1150" height="210" as="geometry" />
        </mxCell>
        <mxCell id="7_dOw0Q5zScmILqZtCyU-54" value="&lt;div style=&quot;font-size: 11px&quot;&gt;&lt;font style=&quot;font-size: 11px&quot;&gt;CSVW description&lt;/font&gt;&lt;/div&gt;JSON" style="ellipse;whiteSpace=wrap;html=1;fontSize=12;strokeWidth=1;fillColor=#CCFF99;" parent="7_dOw0Q5zScmILqZtCyU-43" vertex="1">
          <mxGeometry x="275" y="60" width="100" height="40" as="geometry" />
        </mxCell>
        <mxCell id="7_dOw0Q5zScmILqZtCyU-61" value="&lt;div style=&quot;font-size: 11px&quot;&gt;&lt;font style=&quot;font-size: 11px&quot;&gt;Variable documentation&lt;br style=&quot;font-size: 11px;&quot;&gt;&lt;/font&gt;&lt;/div&gt;&lt;font style=&quot;font-size: 11px&quot;&gt;&amp;nbsp;(fr)&lt;/font&gt;" style="ellipse;whiteSpace=wrap;html=1;fontSize=11;strokeWidth=1;fillColor=#CCFF99;" parent="7_dOw0Q5zScmILqZtCyU-43" vertex="1">
          <mxGeometry x="15" y="100" width="100" height="40" as="geometry" />
        </mxCell>
        <mxCell id="7_dOw0Q5zScmILqZtCyU-120" value="" style="rounded=0;whiteSpace=wrap;html=1;fontSize=12;strokeWidth=1;fillColor=#3333FF;imageWidth=24;" parent="7_dOw0Q5zScmILqZtCyU-43" vertex="1">
          <mxGeometry x="150" y="60" width="80" height="40" as="geometry" />
        </mxCell>
        <mxCell id="Gm324kiZm9DeqdXcQll7-26" value="" style="endArrow=classic;html=1;rounded=0;fontSize=12;exitX=1;exitY=0.5;exitDx=0;exitDy=0;strokeColor=#3333FF;" parent="7_dOw0Q5zScmILqZtCyU-43" edge="1">
          <mxGeometry width="50" height="50" relative="1" as="geometry">
            <mxPoint x="230" y="79.5" as="sourcePoint" />
            <mxPoint x="275" y="80" as="targetPoint" />
          </mxGeometry>
        </mxCell>
        <mxCell id="Gm324kiZm9DeqdXcQll7-28" value="" style="rounded=0;whiteSpace=wrap;html=1;fontSize=12;strokeWidth=1;fillColor=#3333FF;imageWidth=24;" parent="7_dOw0Q5zScmILqZtCyU-43" vertex="1">
          <mxGeometry x="150" y="140" width="80" height="40" as="geometry" />
        </mxCell>
        <mxCell id="Gm324kiZm9DeqdXcQll7-27" value="" style="endArrow=classic;html=1;rounded=0;fontSize=12;exitX=1;exitY=0.5;exitDx=0;exitDy=0;strokeColor=#3333FF;entryX=0;entryY=0.5;entryDx=0;entryDy=0;" parent="7_dOw0Q5zScmILqZtCyU-43" source="7_dOw0Q5zScmILqZtCyU-61" target="Gm324kiZm9DeqdXcQll7-28" edge="1">
          <mxGeometry width="50" height="50" relative="1" as="geometry">
            <mxPoint x="155" y="70" as="sourcePoint" />
            <mxPoint x="195" y="190" as="targetPoint" />
            <Array as="points">
              <mxPoint x="130" y="120" />
              <mxPoint x="130" y="160" />
              <mxPoint x="145" y="160" />
            </Array>
          </mxGeometry>
        </mxCell>
        <mxCell id="Gm324kiZm9DeqdXcQll7-29" value="" style="endArrow=classic;html=1;rounded=0;fontSize=12;exitX=1;exitY=0.5;exitDx=0;exitDy=0;strokeColor=#3333FF;entryX=0;entryY=0.5;entryDx=0;entryDy=0;" parent="7_dOw0Q5zScmILqZtCyU-43" target="7_dOw0Q5zScmILqZtCyU-120" edge="1">
          <mxGeometry width="50" height="50" relative="1" as="geometry">
            <mxPoint x="115" y="120" as="sourcePoint" />
            <mxPoint x="165" y="60" as="targetPoint" />
            <Array as="points">
              <mxPoint x="130" y="120" />
              <mxPoint x="130" y="80" />
            </Array>
          </mxGeometry>
        </mxCell>
        <mxCell id="Gm324kiZm9DeqdXcQll7-31" value="&lt;font style=&quot;font-size: 11px&quot;&gt;Code lists CSV&lt;/font&gt;" style="ellipse;whiteSpace=wrap;html=1;fontSize=12;strokeWidth=1;fillColor=#CCFF99;" parent="7_dOw0Q5zScmILqZtCyU-43" vertex="1">
          <mxGeometry x="275" y="140" width="100" height="40" as="geometry" />
        </mxCell>
        <mxCell id="Gm324kiZm9DeqdXcQll7-32" value="" style="endArrow=classic;html=1;rounded=0;fontSize=12;exitX=1;exitY=0.5;exitDx=0;exitDy=0;strokeColor=#3333FF;" parent="7_dOw0Q5zScmILqZtCyU-43" edge="1">
          <mxGeometry width="50" height="50" relative="1" as="geometry">
            <mxPoint x="230" y="159.5" as="sourcePoint" />
            <mxPoint x="275" y="160" as="targetPoint" />
          </mxGeometry>
        </mxCell>
        <mxCell id="7_dOw0Q5zScmILqZtCyU-64" value="manual" style="rounded=0;whiteSpace=wrap;html=1;fontFamily=Helvetica;fontSize=11;fontColor=#000000;strokeColor=default;strokeWidth=1;fillColor=#CCCCFF;" parent="1" vertex="1">
          <mxGeometry x="600" y="140" width="70" height="40" as="geometry" />
        </mxCell>
        <mxCell id="7_dOw0Q5zScmILqZtCyU-67" value="&lt;font color=&quot;#FFFFFF&quot;&gt;automated&lt;/font&gt;" style="rounded=0;whiteSpace=wrap;html=1;fontFamily=Helvetica;fontSize=11;fontColor=#000000;strokeColor=default;strokeWidth=1;fillColor=#3333FF;" parent="1" vertex="1">
          <mxGeometry x="690" y="140" width="70" height="40" as="geometry" />
        </mxCell>
        <mxCell id="7_dOw0Q5zScmILqZtCyU-68" value="gf-load" style="swimlane;fontSize=12;strokeWidth=1;" parent="1" vertex="1">
          <mxGeometry x="2170" y="200" width="410" height="550" as="geometry" />
        </mxCell>
        <mxCell id="7_dOw0Q5zScmILqZtCyU-70" value="" style="rounded=0;whiteSpace=wrap;html=1;fontSize=12;strokeWidth=1;fillColor=#3333FF;imageWidth=24;" parent="7_dOw0Q5zScmILqZtCyU-68" vertex="1">
          <mxGeometry x="170" y="140" width="80" height="40" as="geometry" />
        </mxCell>
        <mxCell id="7_dOw0Q5zScmILqZtCyU-95" value="" style="edgeStyle=orthogonalEdgeStyle;rounded=0;orthogonalLoop=1;jettySize=auto;html=1;fontFamily=Helvetica;fontSize=11;fontColor=#FFFFFF;strokeColor=#3333FF;exitX=1;exitY=0.5;exitDx=0;exitDy=0;" parent="7_dOw0Q5zScmILqZtCyU-68" source="Gm324kiZm9DeqdXcQll7-82" target="7_dOw0Q5zScmILqZtCyU-70" edge="1">
          <mxGeometry relative="1" as="geometry">
            <mxPoint x="130" y="119.99999999999977" as="sourcePoint" />
            <Array as="points">
              <mxPoint x="140" y="90" />
              <mxPoint x="140" y="160" />
            </Array>
          </mxGeometry>
        </mxCell>
        <mxCell id="7_dOw0Q5zScmILqZtCyU-105" value="" style="edgeStyle=orthogonalEdgeStyle;rounded=0;orthogonalLoop=1;jettySize=auto;html=1;fontFamily=Helvetica;fontSize=11;fontColor=#FFFFFF;strokeColor=#3333FF;exitX=1;exitY=0.5;exitDx=0;exitDy=0;entryX=0;entryY=0.5;entryDx=0;entryDy=0;" parent="7_dOw0Q5zScmILqZtCyU-68" source="Gm324kiZm9DeqdXcQll7-84" target="7_dOw0Q5zScmILqZtCyU-70" edge="1">
          <mxGeometry relative="1" as="geometry">
            <mxPoint x="130" y="173.90999999999997" as="sourcePoint" />
            <mxPoint x="180" y="173.5" as="targetPoint" />
            <Array as="points">
              <mxPoint x="200" y="160" />
            </Array>
          </mxGeometry>
        </mxCell>
        <mxCell id="7_dOw0Q5zScmILqZtCyU-108" value="&lt;font style=&quot;font-size: 11px&quot;&gt;FTP&lt;/font&gt;" style="ellipse;whiteSpace=wrap;html=1;fontSize=12;strokeWidth=1;fillColor=#CCFF99;" parent="7_dOw0Q5zScmILqZtCyU-68" vertex="1">
          <mxGeometry x="290" y="140" width="100" height="40" as="geometry" />
        </mxCell>
        <mxCell id="Gm324kiZm9DeqdXcQll7-82" value="&lt;div style=&quot;font-size: 11px&quot;&gt;&lt;font style=&quot;font-size: 11px&quot;&gt;CSVW description&lt;/font&gt;&lt;/div&gt;&lt;div style=&quot;font-size: 11px&quot;&gt;&lt;font style=&quot;font-size: 11px&quot;&gt;JSON&lt;/font&gt;&lt;font style=&quot;font-size: 11px&quot;&gt;&lt;br&gt;&lt;/font&gt;&lt;/div&gt;" style="ellipse;whiteSpace=wrap;html=1;fontSize=12;strokeWidth=1;fillColor=#CCFF99;" parent="7_dOw0Q5zScmILqZtCyU-68" vertex="1">
          <mxGeometry x="20" y="70" width="100" height="40" as="geometry" />
        </mxCell>
        <mxCell id="Gm324kiZm9DeqdXcQll7-84" value="&lt;font style=&quot;font-size: 11px&quot;&gt;Code lists CSV&lt;/font&gt;" style="ellipse;whiteSpace=wrap;html=1;fontSize=12;strokeWidth=1;fillColor=#CCFF99;" parent="7_dOw0Q5zScmILqZtCyU-68" vertex="1">
          <mxGeometry x="20" y="140" width="100" height="40" as="geometry" />
        </mxCell>
        <mxCell id="Gm324kiZm9DeqdXcQll7-85" value="" style="edgeStyle=orthogonalEdgeStyle;rounded=0;orthogonalLoop=1;jettySize=auto;html=1;fontFamily=Helvetica;fontSize=11;fontColor=#FFFFFF;strokeColor=#3333FF;exitX=1;exitY=0.5;exitDx=0;exitDy=0;entryX=0;entryY=0.5;entryDx=0;entryDy=0;" parent="7_dOw0Q5zScmILqZtCyU-68" source="Gm324kiZm9DeqdXcQll7-97" target="7_dOw0Q5zScmILqZtCyU-70" edge="1">
          <mxGeometry relative="1" as="geometry">
            <mxPoint x="130" y="235" as="sourcePoint" />
            <mxPoint x="180" y="164.5" as="targetPoint" />
            <Array as="points">
              <mxPoint x="140" y="230" />
              <mxPoint x="140" y="160" />
            </Array>
          </mxGeometry>
        </mxCell>
        <mxCell id="Gm324kiZm9DeqdXcQll7-88" value="" style="endArrow=classic;html=1;rounded=0;fontSize=12;exitX=1;exitY=0.5;exitDx=0;exitDy=0;strokeColor=#3333FF;entryX=0;entryY=0.5;entryDx=0;entryDy=0;exitPerimeter=0;" parent="7_dOw0Q5zScmILqZtCyU-68" source="7_dOw0Q5zScmILqZtCyU-70" target="7_dOw0Q5zScmILqZtCyU-108" edge="1">
          <mxGeometry width="50" height="50" relative="1" as="geometry">
            <mxPoint x="260" y="159.99999999999983" as="sourcePoint" />
            <mxPoint x="300" y="160" as="targetPoint" />
          </mxGeometry>
        </mxCell>
        <mxCell id="Gm324kiZm9DeqdXcQll7-97" value="&lt;div style=&quot;font-size: 11px&quot;&gt;&lt;font style=&quot;font-size: 11px&quot;&gt;&lt;font style=&quot;font-size: 11px&quot;&gt;French facilities&lt;font style=&quot;font-size: 11px&quot;&gt; 2020&lt;/font&gt; &lt;/font&gt;CSV&lt;br&gt;&lt;/font&gt;&lt;/div&gt;" style="ellipse;whiteSpace=wrap;html=1;fontSize=12;strokeWidth=1;fillColor=#CCFF99;" parent="7_dOw0Q5zScmILqZtCyU-68" vertex="1">
          <mxGeometry x="20" y="210" width="100" height="40" as="geometry" />
        </mxCell>
        <mxCell id="LNaAPMAuOgr6FWUlJ1w--66" value="" style="rounded=0;whiteSpace=wrap;html=1;fontSize=12;strokeWidth=1;fillColor=#3333FF;imageWidth=24;" parent="7_dOw0Q5zScmILqZtCyU-68" vertex="1">
          <mxGeometry x="170" y="410" width="80" height="40" as="geometry" />
        </mxCell>
        <mxCell id="LNaAPMAuOgr6FWUlJ1w--67" value="" style="edgeStyle=orthogonalEdgeStyle;rounded=0;orthogonalLoop=1;jettySize=auto;html=1;fontFamily=Helvetica;fontSize=11;fontColor=#FFFFFF;strokeColor=#3333FF;exitX=1;exitY=0.5;exitDx=0;exitDy=0;entryX=0;entryY=0.5;entryDx=0;entryDy=0;" parent="7_dOw0Q5zScmILqZtCyU-68" source="LNaAPMAuOgr6FWUlJ1w--69" target="LNaAPMAuOgr6FWUlJ1w--66" edge="1">
          <mxGeometry relative="1" as="geometry">
            <mxPoint x="-2070" y="253.90999999999997" as="sourcePoint" />
            <mxPoint x="-2020" y="253.5" as="targetPoint" />
            <Array as="points">
              <mxPoint x="170" y="430" />
            </Array>
          </mxGeometry>
        </mxCell>
        <mxCell id="LNaAPMAuOgr6FWUlJ1w--68" value="&lt;font style=&quot;font-size: 11px&quot;&gt;GraphDB&lt;/font&gt;" style="ellipse;whiteSpace=wrap;html=1;fontSize=12;strokeWidth=1;fillColor=#CCFF99;" parent="7_dOw0Q5zScmILqZtCyU-68" vertex="1">
          <mxGeometry x="290" y="410" width="100" height="40" as="geometry" />
        </mxCell>
        <mxCell id="LNaAPMAuOgr6FWUlJ1w--69" value="&lt;font style=&quot;font-size: 11px&quot;&gt;Facilities RDF&lt;/font&gt;" style="ellipse;whiteSpace=wrap;html=1;fontSize=12;strokeWidth=1;fillColor=#CCFF99;" parent="7_dOw0Q5zScmILqZtCyU-68" vertex="1">
          <mxGeometry x="20" y="410" width="100" height="40" as="geometry" />
        </mxCell>
        <mxCell id="LNaAPMAuOgr6FWUlJ1w--70" value="" style="endArrow=classic;html=1;rounded=0;fontSize=12;exitX=1;exitY=0.5;exitDx=0;exitDy=0;strokeColor=#3333FF;entryX=0;entryY=0.5;entryDx=0;entryDy=0;" parent="7_dOw0Q5zScmILqZtCyU-68" source="LNaAPMAuOgr6FWUlJ1w--66" target="LNaAPMAuOgr6FWUlJ1w--68" edge="1">
          <mxGeometry width="50" height="50" relative="1" as="geometry">
            <mxPoint x="230" y="429.9999999999998" as="sourcePoint" />
            <mxPoint x="280" y="430.4999999999998" as="targetPoint" />
          </mxGeometry>
        </mxCell>
        <mxCell id="7_dOw0Q5zScmILqZtCyU-111" style="edgeStyle=orthogonalEdgeStyle;rounded=0;orthogonalLoop=1;jettySize=auto;html=1;fontFamily=Helvetica;fontSize=11;fontColor=#000000;strokeColor=#000000;dashed=1;entryX=0;entryY=0.5;entryDx=0;entryDy=0;exitX=1;exitY=0.5;exitDx=0;exitDy=0;" parent="1" source="7_dOw0Q5zScmILqZtCyU-3" target="Gm324kiZm9DeqdXcQll7-51" edge="1">
          <mxGeometry relative="1" as="geometry">
            <mxPoint x="910" y="539.5" as="targetPoint" />
            <mxPoint x="870" y="539.5" as="sourcePoint" />
            <Array as="points" />
          </mxGeometry>
        </mxCell>
        <mxCell id="Gm324kiZm9DeqdXcQll7-51" value="gf-data-transform" style="swimlane;fontSize=12;strokeWidth=1;" parent="1" vertex="1">
          <mxGeometry x="980" y="440" width="1150" height="310" as="geometry" />
        </mxCell>
        <mxCell id="Gm324kiZm9DeqdXcQll7-60" value="" style="rounded=0;whiteSpace=wrap;html=1;fontSize=12;strokeWidth=1;fillColor=#3333FF;imageWidth=24;" parent="Gm324kiZm9DeqdXcQll7-51" vertex="1">
          <mxGeometry x="150" y="90" width="80" height="40" as="geometry" />
        </mxCell>
        <mxCell id="Gm324kiZm9DeqdXcQll7-61" value="" style="endArrow=classic;html=1;rounded=0;fontSize=12;exitX=1;exitY=0.5;exitDx=0;exitDy=0;strokeColor=#3333FF;" parent="Gm324kiZm9DeqdXcQll7-51" edge="1">
          <mxGeometry width="50" height="50" relative="1" as="geometry">
            <mxPoint x="110" y="109.5" as="sourcePoint" />
            <mxPoint x="150" y="110" as="targetPoint" />
          </mxGeometry>
        </mxCell>
        <mxCell id="Gm324kiZm9DeqdXcQll7-62" value="" style="endArrow=classic;html=1;rounded=0;fontSize=12;exitX=1;exitY=0.5;exitDx=0;exitDy=0;strokeColor=#3333FF;exitPerimeter=0;entryX=0;entryY=0.5;entryDx=0;entryDy=0;" parent="Gm324kiZm9DeqdXcQll7-51" source="Gm324kiZm9DeqdXcQll7-60" target="Gm324kiZm9DeqdXcQll7-94" edge="1">
          <mxGeometry width="50" height="50" relative="1" as="geometry">
            <mxPoint x="240" y="109.5" as="sourcePoint" />
            <mxPoint x="290" y="110" as="targetPoint" />
          </mxGeometry>
        </mxCell>
        <mxCell id="Gm324kiZm9DeqdXcQll7-94" value="&lt;font style=&quot;font-size: 11px&quot;&gt;French facilities&lt;font style=&quot;font-size: 11px&quot;&gt; 2020&lt;/font&gt; &lt;/font&gt;(x,y)" style="ellipse;whiteSpace=wrap;html=1;fontSize=12;strokeWidth=1;fillColor=#CCFF99;" parent="Gm324kiZm9DeqdXcQll7-51" vertex="1">
          <mxGeometry x="271" y="90" width="100" height="40" as="geometry" />
        </mxCell>
        <mxCell id="LNaAPMAuOgr6FWUlJ1w--21" value="" style="rounded=0;whiteSpace=wrap;html=1;fontSize=12;strokeWidth=1;fillColor=#3333FF;imageWidth=24;" parent="Gm324kiZm9DeqdXcQll7-51" vertex="1">
          <mxGeometry x="150" y="200" width="80" height="40" as="geometry" />
        </mxCell>
        <mxCell id="LNaAPMAuOgr6FWUlJ1w--22" value="&lt;div&gt;&lt;font style=&quot;font-size: 11px&quot;&gt;Educational&lt;/font&gt;&lt;/div&gt;&lt;div&gt;&lt;font style=&quot;font-size: 11px&quot;&gt;facilities&lt;/font&gt;&lt;/div&gt;" style="ellipse;whiteSpace=wrap;html=1;fontSize=12;strokeWidth=1;fillColor=#CCFF99;" parent="Gm324kiZm9DeqdXcQll7-51" vertex="1">
          <mxGeometry x="10" y="200" width="100" height="40" as="geometry" />
        </mxCell>
        <mxCell id="LNaAPMAuOgr6FWUlJ1w--23" value="" style="endArrow=classic;html=1;rounded=0;fontSize=12;exitX=1;exitY=0.5;exitDx=0;exitDy=0;strokeColor=#3333FF;entryX=0;entryY=0.5;entryDx=0;entryDy=0;jumpSize=3;" parent="Gm324kiZm9DeqdXcQll7-51" source="LNaAPMAuOgr6FWUlJ1w--22" target="LNaAPMAuOgr6FWUlJ1w--21" edge="1">
          <mxGeometry width="50" height="50" relative="1" as="geometry">
            <mxPoint x="-60" y="-535" as="sourcePoint" />
            <mxPoint x="160" y="220.5" as="targetPoint" />
          </mxGeometry>
        </mxCell>
        <mxCell id="LNaAPMAuOgr6FWUlJ1w--25" value="&lt;div&gt;&lt;font style=&quot;font-size: 11px&quot;&gt;Educational&lt;/font&gt;&lt;/div&gt;&lt;div&gt;&lt;font style=&quot;font-size: 11px&quot;&gt;facilities&lt;/font&gt; (x,y)&lt;/div&gt;" style="ellipse;whiteSpace=wrap;html=1;fontSize=12;strokeWidth=1;fillColor=#CCFF99;" parent="Gm324kiZm9DeqdXcQll7-51" vertex="1">
          <mxGeometry x="271" y="200" width="100" height="40" as="geometry" />
        </mxCell>
        <mxCell id="LNaAPMAuOgr6FWUlJ1w--26" value="&lt;font style=&quot;font-size: 11px&quot;&gt;Itali&lt;/font&gt;&lt;font style=&quot;font-size: 11px&quot;&gt;an faciliies&lt;/font&gt; (x,y)" style="ellipse;whiteSpace=wrap;html=1;fontSize=12;strokeWidth=1;fillColor=#CCFF99;" parent="Gm324kiZm9DeqdXcQll7-51" vertex="1">
          <mxGeometry x="530" y="225" width="100" height="40" as="geometry" />
        </mxCell>
        <mxCell id="LNaAPMAuOgr6FWUlJ1w--27" value="&lt;div style=&quot;font-size: 11px&quot;&gt;&lt;font style=&quot;font-size: 11px&quot;&gt;Cultural &lt;br&gt;&lt;/font&gt;&lt;/div&gt;&lt;div style=&quot;font-size: 11px&quot;&gt;&lt;font style=&quot;font-size: 11px&quot;&gt;facilities&lt;br&gt;&lt;/font&gt;&lt;/div&gt;" style="ellipse;whiteSpace=wrap;html=1;fontSize=12;strokeWidth=1;fillColor=#CCFF99;" parent="Gm324kiZm9DeqdXcQll7-51" vertex="1">
          <mxGeometry x="10" y="255" width="100" height="40" as="geometry" />
        </mxCell>
        <mxCell id="LNaAPMAuOgr6FWUlJ1w--29" value="" style="rounded=0;whiteSpace=wrap;html=1;fontSize=12;strokeWidth=1;fillColor=#3333FF;imageWidth=24;" parent="Gm324kiZm9DeqdXcQll7-51" vertex="1">
          <mxGeometry x="410" y="225" width="80" height="40" as="geometry" />
        </mxCell>
        <mxCell id="LNaAPMAuOgr6FWUlJ1w--30" value="" style="endArrow=classic;html=1;rounded=0;fontSize=12;exitX=1;exitY=0.5;exitDx=0;exitDy=0;strokeColor=#3333FF;" parent="Gm324kiZm9DeqdXcQll7-51" source="LNaAPMAuOgr6FWUlJ1w--27" edge="1">
          <mxGeometry width="50" height="50" relative="1" as="geometry">
            <mxPoint x="390" y="275" as="sourcePoint" />
            <mxPoint x="470" y="245.5" as="targetPoint" />
            <Array as="points">
              <mxPoint x="390" y="275" />
              <mxPoint x="390" y="246" />
              <mxPoint x="400" y="246" />
              <mxPoint x="430" y="245.5" />
            </Array>
          </mxGeometry>
        </mxCell>
        <mxCell id="LNaAPMAuOgr6FWUlJ1w--31" value="" style="endArrow=classic;html=1;rounded=0;fontSize=12;exitX=1;exitY=0.5;exitDx=0;exitDy=0;strokeColor=#3333FF;entryX=0;entryY=0.5;entryDx=0;entryDy=0;" parent="Gm324kiZm9DeqdXcQll7-51" source="LNaAPMAuOgr6FWUlJ1w--25" target="LNaAPMAuOgr6FWUlJ1w--29" edge="1">
          <mxGeometry width="50" height="50" relative="1" as="geometry">
            <mxPoint x="230" y="-655.34" as="sourcePoint" />
            <mxPoint x="470" y="245.5" as="targetPoint" />
            <Array as="points">
              <mxPoint x="390" y="220" />
              <mxPoint x="390" y="245" />
            </Array>
          </mxGeometry>
        </mxCell>
        <mxCell id="LNaAPMAuOgr6FWUlJ1w--33" value="" style="endArrow=classic;html=1;rounded=0;fontSize=12;exitX=1;exitY=0.5;exitDx=0;exitDy=0;strokeColor=#3333FF;startSize=15;entryX=0;entryY=0.5;entryDx=0;entryDy=0;" parent="Gm324kiZm9DeqdXcQll7-51" source="LNaAPMAuOgr6FWUlJ1w--21" target="LNaAPMAuOgr6FWUlJ1w--25" edge="1">
          <mxGeometry width="50" height="50" relative="1" as="geometry">
            <mxPoint x="240" y="219.5" as="sourcePoint" />
            <mxPoint x="260" y="220" as="targetPoint" />
          </mxGeometry>
        </mxCell>
        <mxCell id="LNaAPMAuOgr6FWUlJ1w--35" value="" style="endArrow=classic;html=1;rounded=0;fontSize=12;exitX=1;exitY=0.5;exitDx=0;exitDy=0;strokeColor=#3333FF;entryX=0;entryY=0.5;entryDx=0;entryDy=0;" parent="Gm324kiZm9DeqdXcQll7-51" source="LNaAPMAuOgr6FWUlJ1w--29" target="LNaAPMAuOgr6FWUlJ1w--26" edge="1">
          <mxGeometry width="50" height="50" relative="1" as="geometry">
            <mxPoint x="550" y="244.5" as="sourcePoint" />
            <mxPoint x="600" y="245" as="targetPoint" />
          </mxGeometry>
        </mxCell>
        <mxCell id="LNaAPMAuOgr6FWUlJ1w--37" value="" style="endArrow=classic;html=1;rounded=0;fontSize=12;exitX=1;exitY=0.5;exitDx=0;exitDy=0;strokeColor=#3333FF;" parent="Gm324kiZm9DeqdXcQll7-51" source="Gm324kiZm9DeqdXcQll7-94" edge="1">
          <mxGeometry width="50" height="50" relative="1" as="geometry">
            <mxPoint x="390" y="109.5" as="sourcePoint" />
            <mxPoint x="630" y="110" as="targetPoint" />
          </mxGeometry>
        </mxCell>
        <mxCell id="LNaAPMAuOgr6FWUlJ1w--43" value="" style="endArrow=classic;html=1;rounded=0;fontSize=12;exitX=1;exitY=0.5;exitDx=0;exitDy=0;strokeColor=#3333FF;exitPerimeter=0;entryX=0;entryY=0.5;entryDx=0;entryDy=0;" parent="Gm324kiZm9DeqdXcQll7-51" edge="1">
          <mxGeometry width="50" height="50" relative="1" as="geometry">
            <mxPoint x="630" y="244.5" as="sourcePoint" />
            <mxPoint x="670" y="244.5" as="targetPoint" />
          </mxGeometry>
        </mxCell>
        <mxCell id="LNaAPMAuOgr6FWUlJ1w--44" value="" style="rounded=0;whiteSpace=wrap;html=1;fontSize=12;strokeWidth=1;fillColor=#3333FF;imageWidth=24;" parent="Gm324kiZm9DeqdXcQll7-51" vertex="1">
          <mxGeometry x="670" y="225" width="80" height="40" as="geometry" />
        </mxCell>
        <mxCell id="LNaAPMAuOgr6FWUlJ1w--45" value="" style="endArrow=classic;html=1;rounded=0;fontSize=12;exitX=1;exitY=0.5;exitDx=0;exitDy=0;strokeColor=#3333FF;exitPerimeter=0;entryX=0;entryY=0.5;entryDx=0;entryDy=0;" parent="Gm324kiZm9DeqdXcQll7-51" edge="1">
          <mxGeometry width="50" height="50" relative="1" as="geometry">
            <mxPoint x="630" y="139.5" as="sourcePoint" />
            <mxPoint x="670" y="139.5" as="targetPoint" />
          </mxGeometry>
        </mxCell>
        <mxCell id="LNaAPMAuOgr6FWUlJ1w--46" value="" style="rounded=0;whiteSpace=wrap;html=1;fontSize=12;strokeWidth=1;fillColor=#3333FF;imageWidth=24;" parent="Gm324kiZm9DeqdXcQll7-51" vertex="1">
          <mxGeometry x="670" y="120" width="80" height="40" as="geometry" />
        </mxCell>
        <mxCell id="LNaAPMAuOgr6FWUlJ1w--51" value="" style="endArrow=classic;html=1;rounded=0;fontSize=12;exitX=1;exitY=0.5;exitDx=0;exitDy=0;strokeColor=#3333FF;exitPerimeter=0;entryX=0;entryY=0.5;entryDx=0;entryDy=0;" parent="Gm324kiZm9DeqdXcQll7-51" target="LNaAPMAuOgr6FWUlJ1w--52" edge="1">
          <mxGeometry width="50" height="50" relative="1" as="geometry">
            <mxPoint x="750" y="140" as="sourcePoint" />
            <mxPoint x="-150" y="-300" as="targetPoint" />
          </mxGeometry>
        </mxCell>
        <mxCell id="LNaAPMAuOgr6FWUlJ1w--52" value="&lt;div style=&quot;font-size: 11px&quot;&gt;&lt;font style=&quot;font-size: 11px&quot;&gt;&lt;font style=&quot;font-size: 11px&quot;&gt;French facilities&lt;font style=&quot;font-size: 11px&quot;&gt; 2020&lt;/font&gt; &lt;/font&gt;RDF&lt;/font&gt;&lt;/div&gt;" style="ellipse;whiteSpace=wrap;html=1;fontSize=12;strokeWidth=1;fillColor=#CCFF99;" parent="Gm324kiZm9DeqdXcQll7-51" vertex="1">
          <mxGeometry x="790" y="120" width="100" height="40" as="geometry" />
        </mxCell>
        <mxCell id="LNaAPMAuOgr6FWUlJ1w--53" value="" style="endArrow=classic;html=1;rounded=0;fontSize=12;strokeColor=#3333FF;entryX=0;entryY=0.5;entryDx=0;entryDy=0;" parent="Gm324kiZm9DeqdXcQll7-51" target="LNaAPMAuOgr6FWUlJ1w--54" edge="1">
          <mxGeometry width="50" height="50" relative="1" as="geometry">
            <mxPoint x="890" y="140" as="sourcePoint" />
            <mxPoint x="930" y="119.5" as="targetPoint" />
            <Array as="points">
              <mxPoint x="900" y="140" />
              <mxPoint x="900" y="190" />
            </Array>
          </mxGeometry>
        </mxCell>
        <mxCell id="LNaAPMAuOgr6FWUlJ1w--54" value="" style="rounded=0;whiteSpace=wrap;html=1;fontSize=12;strokeWidth=1;fillColor=#3333FF;imageWidth=24;" parent="Gm324kiZm9DeqdXcQll7-51" vertex="1">
          <mxGeometry x="920" y="170" width="80" height="40" as="geometry" />
        </mxCell>
        <mxCell id="LNaAPMAuOgr6FWUlJ1w--55" value="&lt;font style=&quot;font-size: 11px&quot;&gt;Itali&lt;/font&gt;&lt;font style=&quot;font-size: 11px&quot;&gt;an faciliies&lt;/font&gt;&lt;font style=&quot;font-size: 11px&quot;&gt; RDF&lt;br&gt;&lt;/font&gt;" style="ellipse;whiteSpace=wrap;html=1;fontSize=12;strokeWidth=1;fillColor=#CCFF99;" parent="Gm324kiZm9DeqdXcQll7-51" vertex="1">
          <mxGeometry x="790" y="225" width="100" height="40" as="geometry" />
        </mxCell>
        <mxCell id="LNaAPMAuOgr6FWUlJ1w--56" value="" style="endArrow=classic;html=1;rounded=0;fontSize=12;exitX=1;exitY=0.5;exitDx=0;exitDy=0;strokeColor=#3333FF;entryX=0;entryY=0.5;entryDx=0;entryDy=0;" parent="Gm324kiZm9DeqdXcQll7-51" target="LNaAPMAuOgr6FWUlJ1w--55" edge="1">
          <mxGeometry width="50" height="50" relative="1" as="geometry">
            <mxPoint x="750" y="245" as="sourcePoint" />
            <mxPoint x="-120" y="-195" as="targetPoint" />
          </mxGeometry>
        </mxCell>
        <mxCell id="LNaAPMAuOgr6FWUlJ1w--57" value="" style="endArrow=classic;html=1;rounded=0;fontSize=12;exitX=1;exitY=0.5;exitDx=0;exitDy=0;strokeColor=#3333FF;entryX=0;entryY=0.5;entryDx=0;entryDy=0;" parent="Gm324kiZm9DeqdXcQll7-51" source="LNaAPMAuOgr6FWUlJ1w--55" target="LNaAPMAuOgr6FWUlJ1w--54" edge="1">
          <mxGeometry width="50" height="50" relative="1" as="geometry">
            <mxPoint x="890" y="244.5" as="sourcePoint" />
            <mxPoint x="930" y="244.5" as="targetPoint" />
            <Array as="points">
              <mxPoint x="900" y="245" />
              <mxPoint x="900" y="190" />
            </Array>
          </mxGeometry>
        </mxCell>
        <mxCell id="LNaAPMAuOgr6FWUlJ1w--58" value="F&lt;font style=&quot;font-size: 11px&quot;&gt;aciliies&lt;/font&gt;&lt;font style=&quot;font-size: 11px&quot;&gt; RDF&lt;br&gt;&lt;/font&gt;" style="ellipse;whiteSpace=wrap;html=1;fontSize=12;strokeWidth=1;fillColor=#CCFF99;" parent="Gm324kiZm9DeqdXcQll7-51" vertex="1">
          <mxGeometry x="1030" y="170" width="100" height="40" as="geometry" />
        </mxCell>
        <mxCell id="LNaAPMAuOgr6FWUlJ1w--59" value="" style="endArrow=classic;html=1;rounded=0;fontSize=12;exitX=1;exitY=0.5;exitDx=0;exitDy=0;strokeColor=#3333FF;entryX=0;entryY=0.5;entryDx=0;entryDy=0;" parent="Gm324kiZm9DeqdXcQll7-51" target="LNaAPMAuOgr6FWUlJ1w--58" edge="1">
          <mxGeometry width="50" height="50" relative="1" as="geometry">
            <mxPoint x="990" y="190" as="sourcePoint" />
            <mxPoint x="-860" y="-690" as="targetPoint" />
          </mxGeometry>
        </mxCell>
        <mxCell id="LNaAPMAuOgr6FWUlJ1w--60" value="" style="endArrow=classic;html=1;rounded=0;fontSize=12;exitX=1;exitY=0.5;exitDx=0;exitDy=0;strokeColor=#3333FF;entryX=0;entryY=0.5;entryDx=0;entryDy=0;" parent="Gm324kiZm9DeqdXcQll7-51" edge="1">
          <mxGeometry width="50" height="50" relative="1" as="geometry">
            <mxPoint x="630" y="140" as="sourcePoint" />
            <mxPoint x="670" y="79.5" as="targetPoint" />
            <Array as="points">
              <mxPoint x="630" y="80" />
            </Array>
          </mxGeometry>
        </mxCell>
        <mxCell id="LNaAPMAuOgr6FWUlJ1w--61" value="" style="rounded=0;whiteSpace=wrap;html=1;fontSize=12;strokeWidth=1;fillColor=#3333FF;imageWidth=24;" parent="Gm324kiZm9DeqdXcQll7-51" vertex="1">
          <mxGeometry x="670" y="60" width="80" height="40" as="geometry" />
        </mxCell>
        <mxCell id="LNaAPMAuOgr6FWUlJ1w--62" value="" style="endArrow=classic;html=1;rounded=0;fontSize=12;exitX=1;exitY=0.5;exitDx=0;exitDy=0;strokeColor=#3333FF;exitPerimeter=0;entryX=0;entryY=0.5;entryDx=0;entryDy=0;" parent="Gm324kiZm9DeqdXcQll7-51" target="LNaAPMAuOgr6FWUlJ1w--63" edge="1">
          <mxGeometry width="50" height="50" relative="1" as="geometry">
            <mxPoint x="750" y="80" as="sourcePoint" />
            <mxPoint x="-1130" y="-800" as="targetPoint" />
          </mxGeometry>
        </mxCell>
        <mxCell id="LNaAPMAuOgr6FWUlJ1w--63" value="&lt;div style=&quot;font-size: 11px&quot;&gt;&lt;font style=&quot;font-size: 11px&quot;&gt;&lt;font style=&quot;font-size: 11px&quot;&gt;French facilities&lt;font style=&quot;font-size: 11px&quot;&gt; 2020&lt;/font&gt; &lt;/font&gt;CSV&lt;br&gt;&lt;/font&gt;&lt;/div&gt;" style="ellipse;whiteSpace=wrap;html=1;fontSize=12;strokeWidth=1;fillColor=#CCFF99;" parent="Gm324kiZm9DeqdXcQll7-51" vertex="1">
          <mxGeometry x="790" y="60" width="100" height="40" as="geometry" />
        </mxCell>
        <mxCell id="LNaAPMAuOgr6FWUlJ1w--72" value="&lt;font style=&quot;font-size: 11px&quot;&gt;French facilities&lt;font style=&quot;font-size: 11px&quot;&gt; 2020&lt;/font&gt;&lt;br&gt;&lt;/font&gt;" style="ellipse;whiteSpace=wrap;html=1;fontSize=12;strokeWidth=1;fillColor=#CCFF99;" parent="Gm324kiZm9DeqdXcQll7-51" vertex="1">
          <mxGeometry x="10" y="90" width="100" height="40" as="geometry" />
        </mxCell>
        <mxCell id="Gm324kiZm9DeqdXcQll7-75" style="edgeStyle=orthogonalEdgeStyle;rounded=0;orthogonalLoop=1;jettySize=auto;html=1;fontFamily=Helvetica;fontSize=11;fontColor=#000000;strokeColor=#000000;dashed=1;" parent="1" edge="1">
          <mxGeometry relative="1" as="geometry">
            <mxPoint x="980" y="320" as="targetPoint" />
            <mxPoint x="940" y="320" as="sourcePoint" />
            <Array as="points">
              <mxPoint x="940" y="320.5" />
              <mxPoint x="940" y="320.5" />
            </Array>
          </mxGeometry>
        </mxCell>
        <mxCell id="Gm324kiZm9DeqdXcQll7-90" style="edgeStyle=orthogonalEdgeStyle;rounded=0;orthogonalLoop=1;jettySize=auto;html=1;fontFamily=Helvetica;fontSize=11;fontColor=#000000;strokeColor=#000000;dashed=1;entryX=0;entryY=0.5;entryDx=0;entryDy=0;" parent="1" edge="1">
          <mxGeometry relative="1" as="geometry">
            <mxPoint x="2170" y="309.99999999999994" as="targetPoint" />
            <mxPoint x="2130" y="310" as="sourcePoint" />
            <Array as="points">
              <mxPoint x="2160" y="309.99999999999994" />
              <mxPoint x="2160" y="309.99999999999994" />
            </Array>
          </mxGeometry>
        </mxCell>
        <mxCell id="LNaAPMAuOgr6FWUlJ1w--71" style="edgeStyle=orthogonalEdgeStyle;rounded=0;orthogonalLoop=1;jettySize=auto;html=1;fontFamily=Helvetica;fontSize=11;fontColor=#000000;strokeColor=#000000;dashed=1;entryX=0;entryY=0.5;entryDx=0;entryDy=0;" parent="1" edge="1">
          <mxGeometry relative="1" as="geometry">
            <mxPoint x="2170" y="585" as="targetPoint" />
            <mxPoint x="2130" y="585" as="sourcePoint" />
            <Array as="points">
              <mxPoint x="2160" y="585" />
              <mxPoint x="2160" y="585" />
            </Array>
          </mxGeometry>
        </mxCell>
      </root>
    </mxGraphModel>
  </diagram>
</mxfile>
